<?xml version="1.0" encoding="UTF-8"?>
<svg xmlns="http://www.w3.org/2000/svg" xmlns:xlink="http://www.w3.org/1999/xlink" width="12px" height="12px" viewBox="0 0 12 12" version="1.1">
<g id="surface1">
<path style=" stroke:none;fill-rule:nonzero;fill:rgb(0%,0%,0%);fill-opacity:1;" d="M 11.65625 5.65625 L 10.667969 5.65625 L 11.109375 5.214844 C 11.230469 5.09375 11.230469 4.90625 11.109375 4.785156 C 10.992188 4.667969 10.800781 4.667969 10.683594 4.785156 L 9.8125 5.65625 L 8.347656 5.65625 L 9 4.957031 C 9.113281 4.835938 9.105469 4.644531 8.984375 4.53125 C 8.933594 4.484375 8.871094 4.457031 8.808594 4.453125 C 8.769531 4.449219 7.945312 4.453125 7.945312 4.453125 L 8.910156 3.484375 L 10.128906 3.484375 C 10.292969 3.484375 10.429688 3.347656 10.429688 3.179688 C 10.429688 3.015625 10.292969 2.878906 10.128906 2.878906 L 9.515625 2.878906 L 10.226562 2.167969 C 10.347656 2.050781 10.347656 1.859375 10.226562 1.738281 C 10.109375 1.621094 9.914062 1.621094 9.792969 1.738281 L 9.066406 2.460938 L 9.066406 1.832031 C 9.066406 1.664062 8.933594 1.53125 8.765625 1.53125 C 8.597656 1.53125 8.464844 1.664062 8.464844 1.832031 L 8.464844 3.066406 L 7.464844 4.070312 L 7.445312 3.160156 C 7.445312 3.15625 7.449219 3.15625 7.449219 3.15625 C 7.445312 3.082031 7.417969 3.007812 7.363281 2.953125 C 7.25 2.832031 7.050781 2.828125 6.929688 2.945312 L 6.289062 3.558594 L 6.289062 2.136719 L 7.152344 1.28125 C 7.269531 1.164062 7.273438 0.972656 7.15625 0.855469 C 7.039062 0.734375 6.84375 0.734375 6.722656 0.855469 L 6.289062 1.285156 L 6.289062 0.300781 C 6.289062 0.136719 6.152344 0 5.988281 0 C 5.820312 0 5.683594 0.136719 5.683594 0.300781 L 5.683594 1.285156 L 5.261719 0.855469 C 5.140625 0.734375 4.953125 0.734375 4.835938 0.855469 C 4.71875 0.972656 4.714844 1.164062 4.832031 1.28125 L 5.683594 2.136719 L 5.683594 3.566406 L 5.03125 2.941406 C 4.910156 2.828125 4.722656 2.832031 4.609375 2.953125 C 4.566406 3 4.542969 3.054688 4.53125 3.113281 C 4.527344 3.136719 4.523438 3.160156 4.523438 3.1875 L 4.519531 4.039062 L 3.511719 3.035156 L 3.511719 1.832031 C 3.511719 1.664062 3.375 1.53125 3.207031 1.53125 C 3.042969 1.53125 2.90625 1.664062 2.90625 1.832031 L 2.90625 2.433594 L 2.21875 1.738281 C 2.101562 1.621094 1.914062 1.621094 1.796875 1.738281 C 1.679688 1.859375 1.679688 2.050781 1.796875 2.167969 L 2.511719 2.878906 L 1.871094 2.878906 C 1.707031 2.878906 1.570312 3.015625 1.570312 3.179688 C 1.570312 3.347656 1.707031 3.484375 1.871094 3.484375 L 3.117188 3.484375 L 4.113281 4.480469 L 3.183594 4.511719 C 3.023438 4.519531 2.882812 4.652344 2.878906 4.8125 C 2.878906 4.816406 2.867188 4.820312 2.867188 4.824219 C 2.867188 4.824219 2.878906 4.828125 2.878906 4.828125 C 2.882812 4.902344 2.917969 4.976562 2.976562 5.035156 L 3.613281 5.65625 L 2.214844 5.65625 L 1.34375 4.785156 C 1.226562 4.667969 1.035156 4.667969 0.917969 4.785156 C 0.800781 4.90625 0.800781 5.09375 0.917969 5.214844 L 1.363281 5.65625 L 0.34375 5.65625 C 0.175781 5.65625 0.0390625 5.792969 0.0390625 5.960938 C 0.0390625 6.125 0.175781 6.261719 0.34375 6.261719 L 1.351562 6.261719 L 0.917969 6.695312 C 0.800781 6.8125 0.800781 7.003906 0.917969 7.121094 C 0.976562 7.179688 1.054688 7.210938 1.132812 7.210938 C 1.207031 7.210938 1.285156 7.179688 1.34375 7.121094 L 2.203125 6.261719 L 3.613281 6.261719 L 3 6.921875 C 2.886719 7.042969 2.894531 7.234375 3.015625 7.347656 C 3.074219 7.402344 3.148438 7.429688 3.222656 7.429688 C 3.222656 7.429688 3.222656 7.429688 3.226562 7.429688 C 3.230469 7.429688 3.230469 7.429688 3.230469 7.429688 L 4.117188 7.425781 L 3.105469 8.4375 L 1.871094 8.4375 C 1.707031 8.4375 1.570312 8.570312 1.570312 8.738281 C 1.570312 8.90625 1.707031 9.039062 1.871094 9.039062 L 2.5 9.039062 L 1.800781 9.742188 C 1.683594 9.859375 1.683594 10.050781 1.800781 10.167969 C 1.859375 10.226562 1.9375 10.257812 2.011719 10.257812 C 2.089844 10.257812 2.160156 10.226562 2.21875 10.167969 L 2.90625 9.476562 L 2.90625 10.085938 C 2.90625 10.253906 3.042969 10.390625 3.207031 10.390625 C 3.375 10.390625 3.511719 10.253906 3.511719 10.085938 L 3.511719 8.871094 L 4.535156 7.855469 L 4.574219 8.835938 C 4.578125 9 4.714844 9.128906 4.878906 9.125 C 4.933594 9.125 4.992188 9.109375 5.050781 9.066406 C 5.09375 9.035156 5.683594 8.429688 5.683594 8.429688 L 5.683594 9.851562 L 4.839844 10.703125 C 4.722656 10.820312 4.726562 11.011719 4.84375 11.132812 C 4.902344 11.191406 4.980469 11.21875 5.058594 11.21875 C 5.136719 11.21875 5.207031 11.191406 5.265625 11.132812 L 5.683594 10.707031 L 5.683594 11.699219 C 5.683594 11.863281 5.820312 12 5.988281 12 C 6.152344 12 6.289062 11.863281 6.289062 11.699219 L 6.289062 10.679688 L 6.746094 11.132812 C 6.808594 11.191406 6.886719 11.21875 6.964844 11.21875 C 7.042969 11.21875 7.121094 11.191406 7.179688 11.132812 C 7.296875 11.011719 7.292969 10.820312 7.175781 10.703125 L 6.289062 9.824219 L 6.289062 8.386719 C 6.289062 8.386719 6.839844 8.90625 6.929688 8.988281 C 7.015625 9.074219 7.085938 9.121094 7.191406 9.121094 C 7.359375 9.121094 7.496094 8.976562 7.492188 8.808594 L 7.480469 7.855469 L 8.464844 8.84375 L 8.464844 10.085938 C 8.464844 10.253906 8.597656 10.390625 8.765625 10.390625 C 8.933594 10.390625 9.066406 10.253906 9.066406 10.085938 L 9.066406 9.449219 L 9.792969 10.167969 C 9.855469 10.226562 9.933594 10.257812 10.011719 10.257812 C 10.089844 10.257812 10.167969 10.226562 10.226562 10.167969 C 10.34375 10.050781 10.34375 9.859375 10.226562 9.742188 L 9.527344 9.039062 L 10.128906 9.039062 C 10.292969 9.039062 10.429688 8.90625 10.429688 8.738281 C 10.429688 8.570312 10.292969 8.4375 10.128906 8.4375 L 8.921875 8.4375 L 7.886719 7.398438 L 8.816406 7.367188 C 8.820312 7.367188 8.820312 7.367188 8.824219 7.367188 C 8.828125 7.367188 8.828125 7.363281 8.828125 7.363281 C 8.988281 7.351562 9.113281 7.214844 9.105469 7.054688 C 9.101562 6.957031 9.054688 6.871094 8.980469 6.820312 L 8.421875 6.261719 L 9.824219 6.261719 L 10.683594 7.121094 C 10.742188 7.179688 10.820312 7.210938 10.898438 7.210938 C 10.976562 7.210938 11.050781 7.179688 11.109375 7.121094 C 11.230469 7.003906 11.230469 6.8125 11.109375 6.695312 L 10.679688 6.261719 L 11.65625 6.261719 C 11.824219 6.261719 11.960938 6.125 11.960938 5.960938 C 11.960938 5.792969 11.824219 5.65625 11.65625 5.65625 Z M 8.085938 5.054688 L 7.523438 5.65625 L 6.738281 5.65625 L 7.339844 5.054688 Z M 6.855469 3.855469 L 6.867188 4.664062 L 6.289062 5.238281 L 6.289062 4.394531 Z M 5.125 3.859375 L 5.683594 4.398438 L 5.683594 5.210938 L 5.125 4.644531 Z M 3.902344 5.089844 L 4.695312 5.0625 L 5.289062 5.65625 L 4.472656 5.65625 Z M 3.914062 6.824219 L 4.441406 6.261719 L 5.277344 6.261719 L 4.722656 6.820312 Z M 5.148438 8.117188 L 5.113281 7.269531 L 5.683594 6.699219 L 5.683594 7.566406 Z M 6.878906 8.105469 L 6.289062 7.5625 L 6.289062 6.667969 L 6.871094 7.246094 Z M 8.09375 6.789062 L 7.304688 6.816406 L 6.75 6.261719 L 7.566406 6.261719 Z M 8.09375 6.789062 "/>
</g>
</svg>
